<svg width="256" height="256" viewBox="0 0 256 256" fill="none" xmlns="http://www.w3.org/2000/svg">
<rect width="256" height="256" rx="24" fill="#2F2F2F"/>
<path d="M128.215 181.344C114.859 181.344 102.255 177.602 91.4405 171.116V200.371C91.4405 210.995 82.459 219.373 71.7725 217.961C62.8213 216.777 56.377 208.694 56.377 199.665V110.308C56.377 110.259 56.3826 110.211 56.3826 110.161C56.3826 110.085 56.377 110.011 56.377 109.934C56.377 69.9541 89.0874 37.8828 128.215 37.8828C167.554 37.8828 199.623 69.9541 199.623 109.934C199.623 149.273 167.554 181.344 128.215 181.344ZM128.215 73.1608C124.698 73.1608 121.295 73.6842 118.059 74.6151C117.369 74.9586 116.664 75.2835 115.923 75.5415C102.707 80.1592 92.8482 92.2824 91.5854 107.082C91.5462 107.59 91.526 108.101 91.507 108.615C91.4854 109.107 91.4521 109.596 91.4491 110.095C91.5376 130.117 108.171 146.28 128.215 146.28C148.097 146.28 164.347 130.031 164.347 109.934C164.347 89.4088 148.097 73.1608 128.215 73.1608Z" fill="#7B62F5"/>
<path d="M91.441 171.116V200.371C91.441 210.995 82.4595 219.374 71.773 217.961C62.8218 216.777 56.3774 208.694 56.3774 199.665V110.308C56.3774 110.259 56.3831 110.211 56.3831 110.162C56.4674 135.978 70.6335 158.636 91.441 171.116Z" fill="#ACAEFA"/>
<path d="M105.424 41.8548C116.419 38.2056 127.787 46.2955 127.787 57.8807V59.4031C127.787 66.0128 123.873 71.7294 118.059 74.6146C103.67 78.7536 92.7816 91.4452 91.5857 107.082C91.542 107.588 91.5304 108.102 91.5073 108.614C91.4912 109.056 91.4407 109.487 91.4407 109.933C91.4407 109.988 91.4494 110.039 91.4494 110.094C91.4479 110.165 91.4407 110.236 91.4407 110.307V171.115C70.6329 158.635 56.4671 135.978 56.3828 110.161C56.4467 78.1767 77.0283 51.2784 105.424 41.8548Z" fill="#C4CAFA"/>
</svg>
