<svg width="524" height="235" viewBox="0 0 524 235" fill="none" xmlns="http://www.w3.org/2000/svg">
<path d="M0 178.951V17.7454C0 7.91054 7.91084 0 17.7454 0C27.3662 0 35.0633 7.91054 35.0633 17.7454V178.951C35.2774 188.786 27.3662 196.697 17.7454 196.697C7.91084 196.697 0 188.786 0 178.951Z" fill="#7B62F5"/>
<path d="M59.8594 126.138C59.8594 86.7986 92.5705 54.7285 131.696 54.7285C171.035 54.7285 203.106 86.7986 203.106 126.138C203.106 166.119 171.035 198.189 131.696 198.189C92.5705 198.189 59.8594 166.119 59.8594 126.138ZM131.696 162.912C151.58 162.912 167.828 146.663 167.828 126.138C167.828 106.041 151.58 89.7918 131.696 89.7918C111.599 89.7918 94.923 106.041 94.923 126.138C94.923 146.663 111.599 162.912 131.696 162.912Z" fill="#7B62F5"/>
<path d="M218.913 126.138C218.913 86.7986 251.624 54.7285 290.75 54.7285C330.089 54.7285 362.159 86.7986 362.159 126.138C362.159 166.119 330.089 198.189 290.75 198.189C251.624 198.189 218.913 166.119 218.913 126.138ZM290.75 162.912C310.633 162.912 326.882 146.663 326.882 126.138C326.882 106.041 310.633 89.7918 290.75 89.7918C270.653 89.7918 253.977 106.041 253.977 126.138C253.977 146.663 270.653 162.912 290.75 162.912Z" fill="#7B62F5"/>
<path d="M452.584 198.19C439.228 198.19 426.624 194.448 415.81 187.961V217.216C415.81 227.841 406.828 236.219 396.142 234.807C387.19 233.623 380.746 225.54 380.746 216.51V127.154C380.746 127.104 380.752 127.056 380.752 127.007C380.752 126.93 380.746 126.856 380.746 126.779C380.746 86.7998 413.457 54.7285 452.584 54.7285C491.923 54.7285 523.992 86.7998 523.992 126.779C523.992 166.118 491.923 198.19 452.584 198.19ZM452.584 90.0065C449.067 90.0065 445.664 90.5299 442.428 91.4608C441.738 91.8043 441.033 92.1292 440.293 92.3872C427.076 97.0049 417.217 109.128 415.955 123.928C415.915 124.435 415.895 124.947 415.876 125.46C415.854 125.953 415.821 126.442 415.818 126.94C415.907 146.962 432.54 163.126 452.584 163.126C472.466 163.126 488.716 146.877 488.716 126.779C488.716 106.255 472.466 90.0065 452.584 90.0065Z" fill="#7B62F5"/>
<path d="M415.81 187.961V217.217C415.81 227.841 406.829 236.219 396.142 234.807C387.191 233.623 380.747 225.54 380.747 216.511V127.154C380.747 127.104 380.752 127.057 380.752 127.007C380.837 152.824 395.003 175.481 415.81 187.961Z" fill="#ACAEFA"/>
<path d="M429.793 58.7005C440.789 55.0513 452.156 63.1412 452.156 74.7265V76.2488C452.156 82.8585 448.242 88.5751 442.428 91.4603C428.039 95.5993 417.151 108.291 415.955 123.927C415.911 124.433 415.9 124.948 415.876 125.46C415.86 125.902 415.81 126.332 415.81 126.779C415.81 126.834 415.818 126.885 415.818 126.94C415.817 127.011 415.81 127.082 415.81 127.153V187.961C395.002 175.481 380.836 152.823 380.752 127.007C380.816 95.0224 401.397 68.1241 429.793 58.7005Z" fill="#C4CAFA"/>
</svg>
